#N canvas 60 60 700 520 10;
#X obj 20 20 loadbang;
#X msg 20 50 1;
#X obj 20 80 metro 250;
#X obj 130 20 r pc-bpm;
#X obj 130 50 max 30;
#X obj 130 80 expr 30000/$f1;
#X obj 20 115 f 0;
#X obj 70 115 + 1;
#X obj 20 145 mod 4;
#X obj 20 175 t f f;
#X obj 20 205 expr (($f1+1)*15000)/max($f2\,30);
#X obj 200 175 r pc-bpm;
#X obj 20 235 pack f 12;
#X obj 20 265 line~;
#X obj 120 235 + 37;
#X obj 120 265 pack f 12;
#X obj 120 295 line~;
#X obj 20 300 vd~ pc-memory;
#X obj 120 330 vd~ pc-memory;
#X obj 260 175 sel 0 1 2 3;
#X msg 260 205 440;
#X msg 300 205 554;
#X msg 340 205 659;
#X msg 380 205 880;
#X obj 260 240 sig~;
#X obj 260 270 osc~;
#X obj 260 300 *~ 0.22;
#X obj 20 340 *~;
#X obj 120 360 *~;
#X obj 20 375 hip~ 60;
#X obj 120 395 hip~ 60;
#X obj 20 410 s~ pc-arp-l;
#X obj 120 430 s~ pc-arp-r;
#X obj 350 300 +~ 0.75;
#X obj 460 20 r pc-onset;
#X msg 460 50 0;
#X obj 520 100 r pc-density;
#X obj 520 130 expr 0.2+($f1*0.8);
#X obj 520 160 pack f 60;
#X obj 520 190 line~;
#X obj 20 375 *~;
#X obj 120 395 *~;
#X obj 600 230 r pc-transport-start;
#X msg 600 260 0;
#X obj 600 300 r pc-transport-continue;
#X msg 600 330 1;
#X obj 680 300 r pc-transport-stop;
#X msg 680 330 0;
#X msg 650 260 1;
#X connect 0 0 1 0;
#X connect 1 0 2 0;
#X connect 2 0 6 0;
#X connect 3 0 4 0;
#X connect 4 0 5 0;
#X connect 5 0 2 1;
#X connect 6 0 7 0;
#X connect 6 0 8 0;
#X connect 7 0 6 1;
#X connect 8 0 9 0;
#X connect 9 0 10 0;
#X connect 9 1 19 0;
#X connect 11 0 10 1;
#X connect 10 0 12 0;
#X connect 10 0 14 0;
#X connect 12 0 13 0;
#X connect 13 0 17 0;
#X connect 14 0 15 0;
#X connect 15 0 16 0;
#X connect 16 0 18 0;
#X connect 17 0 27 0;
#X connect 18 0 28 0;
#X connect 19 0 20 0;
#X connect 19 1 21 0;
#X connect 19 2 22 0;
#X connect 19 3 23 0;
#X connect 20 0 24 0;
#X connect 21 0 24 0;
#X connect 22 0 24 0;
#X connect 23 0 24 0;
#X connect 24 0 25 0;
#X connect 25 0 26 0;
#X connect 26 0 33 0;
#X connect 33 0 27 1;
#X connect 33 0 28 1;
#X connect 34 0 35 0;
#X connect 35 0 6 1;
#X connect 27 0 40 0;
#X connect 28 0 41 0;
#X connect 40 0 29 0;
#X connect 41 0 30 0;
#X connect 29 0 31 0;
#X connect 30 0 32 0;
#X connect 36 0 37 0;
#X connect 37 0 38 0;
#X connect 38 0 39 0;
#X connect 39 0 40 1;
#X connect 39 0 41 1;
#X connect 42 0 43 0;
#X connect 43 0 6 1;
#X connect 42 0 48 0;
#X connect 48 0 2 0;
#X connect 44 0 45 0;
#X connect 45 0 2 0;
#X connect 46 0 47 0;
#X connect 47 0 2 0;
