#N canvas 40 40 760 600 10;
#X obj 20 20 r pc-grain;
#X obj 20 50 max 40;
#X obj 20 80 t f f;
#X obj 20 110 expr 1000/$f1;
#X obj 20 140 sig~;
#X obj 20 170 phasor~;
#X obj 130 170 +~ 0.5;
#X obj 130 200 wrap~;
#X obj 20 205 -~ 0.5;
#X obj 20 235 cos~;
#X obj 20 265 *~ 0.5;
#X obj 20 295 +~ 0.5;
#X obj 130 230 -~ 0.5;
#X obj 130 260 cos~;
#X obj 130 290 *~ 0.5;
#X obj 130 320 +~ 0.5;
#X obj 280 20 r pc-texture;
#X obj 280 50 pack f 60;
#X obj 280 80 line~;
#X obj 20 350 *~;
#X obj 130 350 *~;
#X obj 20 380 *~;
#X obj 130 380 *~;
#X obj 390 20 r pc-delay;
#X obj 390 50 pack f 60;
#X obj 390 80 line~;
#X obj 20 410 +~;
#X obj 130 410 +~;
#X obj 20 440 vd~ pc-memory;
#X obj 130 440 vd~ pc-memory;
#X obj 20 470 *~;
#X obj 130 470 *~;
#X obj 20 500 hip~ 30;
#X obj 130 500 hip~ 30;
#X obj 20 530 throw~ pc-fx-l;
#X obj 130 530 throw~ pc-fx-r;
#X obj 240 380 *~;
#X obj 330 380 *~;
#X obj 500 20 r pc-density;
#X obj 500 50 expr 0.25+($f1*0.75);
#X obj 500 80 pack f 60;
#X obj 500 110 line~;
#X obj 20 500 *~;
#X obj 130 500 *~;
#X obj 600 400 pt-modeswitch 0;
#X obj 600 440 switch~;
#X obj 650 300 pack f 40;
#X obj 650 330 line~;
#X obj 650 360 *~;
#X obj 740 360 *~;
#X obj 250 200 +~ 0.25;
#X obj 250 230 cos~;
#X obj 250 260 *~ -0.5;
#X obj 250 290 +~ 0.5;
#X obj 360 200 +~ 13;
#X obj 360 230 vd~ pc-memory;
#X obj 250 320 *~;
#X obj 250 350 *~;
#X obj 450 200 +~ 0.75;
#X obj 450 230 cos~;
#X obj 450 260 *~ -0.5;
#X obj 450 290 +~ 0.5;
#X obj 560 200 +~ 23;
#X obj 560 230 vd~ pc-memory;
#X obj 450 320 *~;
#X obj 450 350 *~;
#X obj 250 400 +~;
#X obj 450 400 +~;
#X connect 0 0 1 0;
#X connect 1 0 2 0;
#X connect 2 0 3 0;
#X connect 2 1 19 1;
#X connect 2 1 20 1;
#X connect 3 0 4 0;
#X connect 4 0 5 0;
#X connect 5 0 6 0;
#X connect 5 0 8 0;
#X connect 5 0 19 0;
#X connect 6 0 7 0;
#X connect 7 0 12 0;
#X connect 7 0 20 0;
#X connect 8 0 9 0;
#X connect 9 0 10 0;
#X connect 10 0 11 0;
#X connect 11 0 30 1;
#X connect 12 0 13 0;
#X connect 13 0 14 0;
#X connect 14 0 15 0;
#X connect 15 0 31 1;
#X connect 16 0 17 0;
#X connect 17 0 18 0;
#X connect 19 0 36 0;
#X connect 20 0 37 0;
#X connect 18 0 36 1;
#X connect 18 0 37 1;
#X connect 36 0 26 0;
#X connect 37 0 27 0;
#X connect 23 0 24 0;
#X connect 24 0 25 0;
#X connect 25 0 26 1;
#X connect 25 0 27 1;
#X connect 26 0 28 0;
#X connect 27 0 29 0;
#X connect 28 0 30 0;
#X connect 29 0 31 0;
#X connect 30 0 42 0;
#X connect 31 0 43 0;
#X connect 42 0 32 0;
#X connect 43 0 33 0;
#X connect 38 0 39 0;
#X connect 39 0 40 0;
#X connect 40 0 41 0;
#X connect 41 0 42 1;
#X connect 41 0 43 1;
#X connect 44 0 45 0;
#X connect 44 1 46 0;
#X connect 46 0 47 0;
#X connect 32 0 66 0;
#X connect 47 0 48 1;
#X connect 48 0 34 0;
#X connect 33 0 67 0;
#X connect 47 0 49 1;
#X connect 49 0 35 0;
#X connect 5 0 50 0;
#X connect 50 0 51 0;
#X connect 51 0 52 0;
#X connect 52 0 53 0;
#X connect 25 0 54 0;
#X connect 54 0 55 0;
#X connect 55 0 56 0;
#X connect 53 0 56 1;
#X connect 56 0 57 0;
#X connect 41 0 57 1;
#X connect 5 0 58 0;
#X connect 58 0 59 0;
#X connect 59 0 60 0;
#X connect 60 0 61 0;
#X connect 25 0 62 0;
#X connect 62 0 63 0;
#X connect 63 0 64 0;
#X connect 61 0 64 1;
#X connect 64 0 65 0;
#X connect 41 0 65 1;
#X connect 57 0 66 1;
#X connect 66 0 48 0;
#X connect 65 0 67 1;
#X connect 67 0 49 0;
