#N canvas 60 60 760 560 10;
#X obj 20 20 loadbang;
#X msg 20 50 1;
#X obj 20 80 metro 125;
#X obj 130 20 r pc-bpm;
#X obj 130 50 max 30;
#X obj 130 80 expr 15000/$f1;
#X obj 20 115 random 100;
#X obj 20 145 < 50;
#X obj 20 175 sel 1;
#X obj 20 205 s $0-trigger;
#X obj 180 115 r pc-density;
#X obj 180 145 * 100;
#X obj 280 20 r pc-onset;
#X obj 280 50 s $0-trigger;
#X obj 20 245 r $0-trigger;
#X obj 20 275 t b b b;
#X obj 20 310 random 1500;
#X obj 20 340 + 60;
#X obj 20 370 pack f 8;
#X obj 20 400 line~;
#X obj 140 310 random 700;
#X obj 140 340 + 90;
#X obj 140 370 pack f 8;
#X obj 140 400 line~;
#X obj 20 435 vd~ pc-memory;
#X obj 140 435 vd~ pc-memory;
#X obj 300 310 r pc-grain;
#X obj 300 340 clip 30 350;
#X msg 300 370 1 4 \, 0 \$1 4;
#X obj 300 400 vline~;
#X obj 20 470 *~;
#X obj 140 470 *~;
#X obj 20 505 hip~ 80;
#X obj 140 505 hip~ 100;
#X obj 20 535 s~ pc-fx-l;
#X obj 140 535 s~ pc-fx-r;
#X obj 460 20 r pc-texture;
#X obj 460 50 expr int(100+($f1*1400));
#X obj 600 50 expr int(80+($f1*620));
#X obj 460 120 r pc-transport-start;
#X obj 460 150 t b b;
#X msg 460 180 0;
#X msg 510 180 1;
#X obj 580 120 r pc-transport-continue;
#X msg 580 150 1;
#X obj 650 120 r pc-transport-stop;
#X msg 650 150 0;
#X obj 720 400 pt-modeswitch 1;
#X obj 720 440 switch~;
#X obj 650 300 pack f 40;
#X obj 650 330 line~;
#X obj 650 360 *~;
#X obj 740 360 *~;
#X connect 0 0 1 0;
#X connect 1 0 2 0;
#X connect 2 0 6 0;
#X connect 3 0 4 0;
#X connect 4 0 5 0;
#X connect 5 0 2 1;
#X connect 6 0 7 0;
#X connect 7 0 8 0;
#X connect 8 0 9 0;
#X connect 10 0 11 0;
#X connect 11 0 7 1;
#X connect 12 0 13 0;
#X connect 14 0 15 0;
#X connect 15 0 16 0;
#X connect 15 1 20 0;
#X connect 15 2 27 0;
#X connect 16 0 17 0;
#X connect 17 0 18 0;
#X connect 18 0 19 0;
#X connect 19 0 24 0;
#X connect 20 0 21 0;
#X connect 21 0 22 0;
#X connect 22 0 23 0;
#X connect 23 0 25 0;
#X connect 24 0 30 0;
#X connect 25 0 31 0;
#X connect 26 0 27 0;
#X connect 27 0 28 0;
#X connect 28 0 29 0;
#X connect 29 0 30 1;
#X connect 29 0 31 1;
#X connect 30 0 32 0;
#X connect 31 0 33 0;
#X connect 36 0 37 0;
#X connect 36 0 38 0;
#X connect 37 0 16 1;
#X connect 38 0 20 1;
#X connect 39 0 40 0;
#X connect 40 1 41 0;
#X connect 40 0 42 0;
#X connect 41 0 2 0;
#X connect 42 0 2 0;
#X connect 43 0 44 0;
#X connect 44 0 2 0;
#X connect 45 0 46 0;
#X connect 46 0 2 0;
#X connect 47 0 48 0;
#X connect 47 1 49 0;
#X connect 49 0 50 0;
#X connect 32 0 51 0;
#X connect 50 0 51 1;
#X connect 51 0 34 0;
#X connect 33 0 52 0;
#X connect 50 0 52 1;
#X connect 52 0 35 0;
