#N canvas 40 40 980 640 10;
#X obj 20 20 key;
#X obj 20 50 sel 114 111 112 117 121 8 108 54 55 56 57 48 98 110 100 101 105 107;
#X obj 20 90 f 0;
#X obj 20 120 == 0;
#X obj 20 150 t f f;
#X obj 20 180 s pc-loop-record-r;
#X obj 120 180 s pc-loop-record;
#X obj 180 90 s pc-loop-overdub;
#X obj 280 90 f 0;
#X obj 280 120 == 0;
#X obj 280 150 t f f;
#X obj 280 180 s pc-loop-play-r;
#X obj 380 180 s pc-loop-play;
#X obj 440 90 s pc-loop-undo;
#X obj 540 90 f 0;
#X obj 540 120 == 0;
#X obj 540 150 t f f;
#X obj 540 180 s pc-loop-reverse-r;
#X obj 650 180 s pc-loop-reverse;
#X obj 710 90 s pc-loop-clear;
#X obj 800 90 f 0;
#X obj 800 120 == 0;
#X obj 800 150 t f f;
#X obj 800 180 s pc-loop-route-r;
#X obj 900 180 s pc-loop-route;
#X msg 20 240 \; pc-preset-slot-r 0 \; pc-preset-slot 0 \; pc-preset-recall bang;
#X msg 210 240 \; pc-preset-slot-r 1 \; pc-preset-slot 1 \; pc-preset-recall bang;
#X msg 400 240 \; pc-preset-slot-r 2 \; pc-preset-slot 2 \; pc-preset-recall bang;
#X msg 590 240 \; pc-preset-slot-r 3 \; pc-preset-slot 3 \; pc-preset-recall bang;
#X obj 780 240 s pc-preset-save;
#X msg 20 310 \; pc-pitch-r -12 \; pc-pitch -12 \; pc-pitchmix-r 0.35 \; pc-pitchmix 0.35;
#X msg 250 310 \; pc-pitch-r 12 \; pc-pitch 12 \; pc-pitchmix-r 0.35 \; pc-pitchmix 0.35;
#X msg 480 310 \; pc-density-r 0.3 \; pc-density 0.3;
#X msg 650 310 \; pc-density-r 0.9 \; pc-density 0.9;
#X msg 20 380 \; pc-onset-sensitivity-r 0.3 \; pc-onset-sensitivity 0.3;
#X msg 270 380 \; pc-onset-sensitivity-r 0.85 \; pc-onset-sensitivity 0.85;
#X obj 20 440 r pc-loop-record;
#X obj 20 470 t f f;
#X obj 280 440 r pc-loop-play;
#X obj 280 470 t f f;
#X obj 540 440 r pc-loop-reverse;
#X obj 540 470 t f f;
#X obj 800 440 r pc-loop-route;
#X obj 800 470 t f f;
#X connect 0 0 1 0;
#X connect 1 0 2 0;
#X connect 1 1 7 0;
#X connect 1 2 8 0;
#X connect 1 3 13 0;
#X connect 1 4 14 0;
#X connect 1 5 19 0;
#X connect 1 6 20 0;
#X connect 1 7 25 0;
#X connect 1 8 26 0;
#X connect 1 9 27 0;
#X connect 1 10 28 0;
#X connect 1 11 29 0;
#X connect 1 12 30 0;
#X connect 1 13 31 0;
#X connect 1 14 32 0;
#X connect 1 15 33 0;
#X connect 1 16 34 0;
#X connect 1 17 35 0;
#X connect 2 0 3 0;
#X connect 3 0 4 0;
#X connect 4 0 5 0;
#X connect 4 1 6 0;
#X connect 8 0 9 0;
#X connect 9 0 10 0;
#X connect 10 0 11 0;
#X connect 10 1 12 0;
#X connect 14 0 15 0;
#X connect 15 0 16 0;
#X connect 16 0 17 0;
#X connect 16 1 18 0;
#X connect 20 0 21 0;
#X connect 21 0 22 0;
#X connect 22 0 23 0;
#X connect 22 1 24 0;
#X connect 36 0 37 0;
#X connect 37 1 2 1;
#X connect 38 0 39 0;
#X connect 39 1 8 1;
#X connect 40 0 41 0;
#X connect 41 1 14 1;
#X connect 42 0 43 0;
#X connect 43 1 20 1;
