#N canvas 60 60 900 520 10;
#X obj 20 20 key;
#X obj 20 50 sel 32 49 50 51 52 53 113 119 97 115 122 120 99 118 102 103 116;
#X obj 20 90 f 0;
#X obj 20 120 == 0;
#X obj 20 150 t f f;
#X obj 20 180 s pc-freeze-r;
#X obj 90 180 s pc-freeze;
#X obj 130 90 f 1;
#X obj 130 120 == 0;
#X obj 130 150 t f f;
#X obj 130 180 s pc-demo-r;
#X obj 200 180 s pc-demo;
#X msg 240 90 \; pc-mode-r 0 \; pc-mode 0;
#X msg 330 90 \; pc-mode-r 1 \; pc-mode 1;
#X msg 420 90 \; pc-mode-r 2 \; pc-mode 2;
#X msg 510 90 \; pc-mode-r 3 \; pc-mode 3;
#X msg 240 140 \; pc-grain-r 100 \; pc-grain 100;
#X msg 350 140 \; pc-grain-r 420 \; pc-grain 420;
#X msg 460 140 \; pc-mix-r 0.35 \; pc-mix 0.35;
#X msg 570 140 \; pc-mix-r 0.85 \; pc-mix 0.85;
#X msg 680 140 \; pc-feedback-r 0.55 \; pc-feedback 0.55;
#X msg 240 200 \; pc-feedback-r 0.9 \; pc-feedback 0.9;
#X msg 350 200 \; pc-space-r 0.2 \; pc-space 0.2;
#X msg 460 200 \; pc-space-r 0.75 \; pc-space 0.75;
#X msg 570 200 \; pc-tone-r 80 \; pc-tone 80;
#X msg 680 200 \; pc-tone-r 110 \; pc-tone 110;
#X obj 240 280 t b b;
#X obj 240 310 timer;
#X obj 240 340 moses 250;
#X obj 310 370 clip 250 2000;
#X obj 310 400 expr 60000/$f1;
#X obj 310 430 t f f;
#X obj 310 460 s pc-bpm-r;
#X obj 390 460 s pc-bpm;
#X obj 20 230 r pc-freeze;
#X obj 20 260 t f f;
#X obj 130 230 r pc-demo;
#X obj 130 260 t f f;
#X connect 0 0 1 0;
#X connect 1 0 2 0;
#X connect 1 1 7 0;
#X connect 1 2 12 0;
#X connect 1 3 13 0;
#X connect 1 4 14 0;
#X connect 1 5 15 0;
#X connect 1 6 16 0;
#X connect 1 7 17 0;
#X connect 1 8 18 0;
#X connect 1 9 19 0;
#X connect 1 10 20 0;
#X connect 1 11 21 0;
#X connect 1 12 22 0;
#X connect 1 13 23 0;
#X connect 1 14 24 0;
#X connect 1 15 25 0;
#X connect 1 16 26 0;
#X connect 2 0 3 0;
#X connect 3 0 4 0;
#X connect 4 0 5 0;
#X connect 4 1 6 0;
#X connect 7 0 8 0;
#X connect 8 0 9 0;
#X connect 9 0 10 0;
#X connect 9 1 11 0;
#X connect 26 1 27 1;
#X connect 26 0 27 0;
#X connect 27 0 28 0;
#X connect 28 1 29 0;
#X connect 29 0 30 0;
#X connect 30 0 31 0;
#X connect 31 0 32 0;
#X connect 31 1 33 0;
#X connect 34 0 35 0;
#X connect 35 1 2 1;
#X connect 36 0 37 0;
#X connect 37 1 7 1;
