#N canvas 10 10 1120 800 10;
#X obj 20 20 array define pc-loop-a 2880000;
#X obj 20 50 array define pc-loop-b 2880000;
#X obj 20 100 r~ pc-dry;
#X obj 120 100 r~ pc-fxmono;
#X obj 240 100 r pc-loop-route;
#X obj 240 130 pack f 40;
#X obj 240 160 line~;
#X obj 340 130 sig~ 1;
#X obj 340 160 -~;
#X obj 20 190 *~;
#X obj 120 190 *~;
#X obj 20 220 +~;
#X obj 420 20 r pc-loop-ms;
#X obj 420 50 max 100;
#X obj 420 80 expr 1000/$f1;
#X obj 420 110 sig~;
#X obj 520 20 r pc-loop-reverse;
#X obj 520 50 expr if($f1>0\,-1\,1);
#X obj 520 80 pack f 30;
#X obj 520 110 line~;
#X obj 420 140 *~;
#X obj 420 170 phasor~;
#X obj 620 20 r pc-loop-ms;
#X obj 620 50 expr ($f1*$f2)/1000;
#X obj 620 80 pack f 30;
#X obj 620 110 line~;
#X obj 420 200 *~;
#X obj 420 230 +~ 1;
#X obj 420 260 tabread4~ pc-loop-a;
#X obj 570 260 tabread4~ pc-loop-b;
#X obj 720 20 r pc-loop-bank;
#X obj 720 50 == 0;
#X obj 780 50 == 1;
#X obj 720 80 pack f 30;
#X obj 780 80 pack f 30;
#X obj 720 110 line~;
#X obj 780 110 line~;
#X obj 420 300 *~;
#X obj 570 300 *~;
#X obj 420 330 +~;
#X obj 720 150 r pc-loop-play;
#X obj 720 180 pack f 30;
#X obj 720 210 line~;
#X obj 420 360 *~;
#X obj 420 390 hip~ 25;
#X obj 420 420 s~ pc-loop-l;
#X obj 560 360 delwrite~ pc-loop-stereo 60;
#X obj 560 390 delread~ pc-loop-stereo 23;
#X obj 560 420 s~ pc-loop-r;
#X obj 20 270 r pc-loop-overdub-active;
#X obj 20 300 pack f 25;
#X obj 20 330 line~;
#X obj 120 330 *~ 0.25;
#X obj 220 330 sig~ 1;
#X obj 220 360 -~;
#X obj 20 390 *~;
#X obj 120 390 *~ 0.75;
#X obj 220 390 *~ 0.75;
#X obj 120 420 *~;
#X obj 20 450 +~;
#X obj 20 480 tabwrite~ pc-loop-a;
#X obj 170 480 tabwrite~ pc-loop-b;
#X obj 20 530 r pc-loop-record;
#X obj 20 560 sel 1 0;
#X obj 20 590 f 0;
#X obj 90 590 r pc-loop-bank;
#X obj 20 620 expr 1-$f1;
#X obj 20 650 t f f b b;
#X obj 20 680 sel 0 1;
#X obj 150 650 f 0;
#X obj 260 620 timer;
#X msg 330 650 0;
#X obj 330 680 s pc-loop-overdub-active;
#X obj 210 680 t b b;
#X obj 260 710 clip 100 60000;
#X obj 260 740 t f f;
#X obj 260 770 s pc-loop-ms;
#X obj 350 770 s pc-loop-ms-r;
#X obj 440 530 r pc-loop-overdub;
#X obj 440 560 f 0;
#X obj 440 590 expr 1-$f1;
#X obj 440 620 t f f b b;
#X msg 590 650 1;
#X obj 590 680 s pc-loop-overdub-active;
#X obj 700 560 r pc-loop-ms;
#X obj 700 590 delay 1000;
#X obj 700 620 s pc-loop-finish;
#X obj 820 530 r pc-loop-finish;
#X obj 820 560 t b b b;
#X msg 820 590 stop;
#X obj 920 590 f 0;
#X obj 920 620 t f f;
#X obj 920 650 s pc-loop-bank;
#X obj 1000 650 s pc-loop-bank-r;
#X msg 820 650 \; pc-loop-play-r 1 \; pc-loop-play 1 \; pc-loop-overdub-active 0;
#X obj 440 710 r pc-loop-undo;
#X obj 440 740 f 0;
#X obj 440 770 expr 1-$f1;
#X obj 540 740 r pc-loop-clear;
#X msg 540 770 \; pc-loop-a const 0 \; pc-loop-b const 0 \; pc-loop-ms 1000 \; pc-loop-ms-r 1000 \; pc-loop-record-r 0 \; pc-loop-record 0 \; pc-loop-play-r 0 \; pc-loop-play 0 \; pc-loop-overdub-active 0 \; pc-loop-bank 0 \; pc-loop-bank-r 0 \; pc-loop-undo-valid 0 \; pc-loop-cancel bang;
#X obj 1040 20 loadbang;
#X obj 1040 50 samplerate~;
#X obj 1040 80 s pc-samplerate;
#X obj 720 50 r pc-samplerate;
#X obj 520 145 r pc-loop-reset-phase;
#X obj 420 455 snapshot~;
#X obj 500 455 metro 50;
#X obj 500 425 loadbang;
#X msg 500 485 1;
#X obj 420 485 s pc-loop-phase;
#X obj 700 680 r pc-loop-cancel;
#X msg 700 710 stop;
#X obj 1040 130 r pc-loop-record;
#X obj 1040 160 sel 1 0;
#X obj 1040 190 delay 60000;
#X msg 1110 190 stop;
#X msg 1040 220 \; pc-loop-record-r 0 \; pc-loop-record 0;
#X obj 820 710 r pc-loop-undo-valid;
#X obj 440 740 spigot;
#X msg 820 740 0;
#X obj 820 770 s pc-loop-undo-valid;
#X obj 600 710 f 0;
#X obj 600 740 sel 0 1;
#X msg 600 770 0;
#X msg 650 770 1;
#X obj 600 800 s pc-loop-undo-valid;
#X msg 380 650 0;
#X obj 380 680 s pc-loop-is-overdub;
#X msg 640 650 1;
#X obj 640 680 s pc-loop-is-overdub;
#X msg 760 650 0;
#X obj 760 680 s pc-loop-reset-phase;
#X obj 1120 50 * 60;
#X msg 1120 80 \; pc-loop-a resize \$1 \; pc-loop-b resize \$1;
#X connect 2 0 9 0;
#X connect 3 0 10 0;
#X connect 4 0 5 0;
#X connect 5 0 6 0;
#X connect 6 0 10 1;
#X connect 6 0 8 1;
#X connect 7 0 8 0;
#X connect 8 0 9 1;
#X connect 9 0 11 0;
#X connect 10 0 11 1;
#X connect 11 0 55 0;
#X connect 12 0 13 0;
#X connect 13 0 14 0;
#X connect 14 0 15 0;
#X connect 15 0 20 0;
#X connect 16 0 17 0;
#X connect 17 0 18 0;
#X connect 18 0 19 0;
#X connect 19 0 20 1;
#X connect 20 0 21 0;
#X connect 21 0 26 0;
#X connect 21 0 105 0;
#X connect 104 0 21 1;
#X connect 22 0 23 0;
#X connect 103 0 23 1;
#X connect 23 0 24 0;
#X connect 24 0 25 0;
#X connect 25 0 26 1;
#X connect 26 0 27 0;
#X connect 27 0 28 0;
#X connect 27 0 29 0;
#X connect 28 0 37 0;
#X connect 29 0 38 0;
#X connect 30 0 31 0;
#X connect 30 0 32 0;
#X connect 30 0 64 1;
#X connect 30 0 79 1;
#X connect 30 0 96 1;
#X connect 31 0 33 0;
#X connect 32 0 34 0;
#X connect 33 0 35 0;
#X connect 34 0 36 0;
#X connect 35 0 37 1;
#X connect 36 0 38 1;
#X connect 37 0 39 0;
#X connect 38 0 39 1;
#X connect 39 0 43 0;
#X connect 40 0 41 0;
#X connect 41 0 42 0;
#X connect 42 0 43 1;
#X connect 43 0 44 0;
#X connect 44 0 45 0;
#X connect 44 0 46 0;
#X connect 106 0 105 0;
#X connect 107 0 108 0;
#X connect 108 0 106 0;
#X connect 105 0 109 0;
#X connect 47 0 48 0;
#X connect 49 0 50 0;
#X connect 50 0 51 0;
#X connect 51 0 52 0;
#X connect 51 0 58 1;
#X connect 52 0 54 1;
#X connect 53 0 54 0;
#X connect 54 0 55 1;
#X connect 55 0 59 0;
#X connect 39 0 57 0;
#X connect 57 0 58 0;
#X connect 58 0 59 1;
#X connect 59 0 60 0;
#X connect 59 0 61 0;
#X connect 62 0 63 0;
#X connect 63 0 64 0;
#X connect 63 1 73 0;
#X connect 64 0 66 0;
#X connect 66 0 67 0;
#X connect 67 0 68 0;
#X connect 67 1 69 1;
#X connect 67 2 70 0;
#X connect 67 3 71 0;
#X connect 67 3 126 0;
#X connect 68 0 60 0;
#X connect 68 1 61 0;
#X connect 71 0 72 0;
#X connect 73 1 70 1;
#X connect 73 0 86 0;
#X connect 70 0 74 0;
#X connect 74 0 75 0;
#X connect 75 0 76 0;
#X connect 75 1 77 0;
#X connect 78 0 79 0;
#X connect 79 0 80 0;
#X connect 80 0 81 0;
#X connect 81 0 68 0;
#X connect 81 1 69 1;
#X connect 81 2 85 0;
#X connect 81 3 82 0;
#X connect 81 3 128 0;
#X connect 82 0 83 0;
#X connect 84 0 85 1;
#X connect 85 0 86 0;
#X connect 110 0 111 0;
#X connect 111 0 85 0;
#X connect 87 0 88 0;
#X connect 88 2 89 0;
#X connect 89 0 60 0;
#X connect 89 0 61 0;
#X connect 88 1 69 0;
#X connect 88 0 94 0;
#X connect 88 0 121 0;
#X connect 88 0 130 0;
#X connect 69 0 91 0;
#X connect 91 0 92 0;
#X connect 91 1 93 0;
#X connect 95 0 118 0;
#X connect 117 0 118 1;
#X connect 118 0 96 0;
#X connect 118 0 119 0;
#X connect 118 0 130 0;
#X connect 119 0 120 0;
#X connect 96 0 97 0;
#X connect 97 0 91 0;
#X connect 98 0 99 0;
#X connect 100 0 101 0;
#X connect 101 0 102 0;
#X connect 101 0 132 0;
#X connect 132 0 133 0;
#X connect 112 0 113 0;
#X connect 113 0 114 0;
#X connect 113 1 115 0;
#X connect 115 0 114 0;
#X connect 114 0 116 0;
#X connect 121 0 122 0;
#X connect 122 0 123 0;
#X connect 122 1 124 0;
#X connect 123 0 125 0;
#X connect 124 0 125 0;
#X connect 126 0 127 0;
#X connect 126 0 121 1;
#X connect 128 0 129 0;
#X connect 128 0 121 1;
#X connect 130 0 131 0;
