#N canvas 40 40 760 620 10;
#X obj 20 20 r~ pc-dry;
#X obj 20 60 delwrite~ pc-ml 1000;
#X obj 320 20 r pc-grain;
#X obj 320 50 max 40;
#X obj 320 80 clip 40 500;
#X obj 320 110 t f f;
#X obj 320 150 expr 1000/$f1;
#X obj 320 190 sig~;
#X obj 320 230 phasor~;
#X obj 460 150 sig~;
#X obj 320 270 *~;
#X obj 320 310 vd~ pc-ml;
#X obj 460 270 cos~;
#X obj 460 310 *~ -0.5;
#X obj 460 350 +~ 0.5;
#X obj 320 390 *~;
#X obj 320 430 hip~ 30;
#X obj 320 470 throw~ pc-fx-l;
#X obj 460 470 throw~ pc-fx-r;
#X obj 600 430 switch~;
#X obj 600 390 pt-modeswitch 5;
#X obj 650 300 pack f 40;
#X obj 650 330 line~;
#X obj 650 360 *~;
#X obj 740 360 *~;
#X connect 0 0 1 0;
#X connect 2 0 3 0;
#X connect 3 0 4 0;
#X connect 4 0 5 0;
#X connect 5 0 6 0;
#X connect 5 1 9 0;
#X connect 6 0 7 0;
#X connect 7 0 8 0;
#X connect 8 0 10 0;
#X connect 9 0 10 1;
#X connect 10 0 11 0;
#X connect 11 0 15 0;
#X connect 8 0 12 0;
#X connect 12 0 13 0;
#X connect 13 0 14 0;
#X connect 14 0 15 1;
#X connect 15 0 16 0;
#X connect 20 0 19 0;
#X connect 20 1 21 0;
#X connect 21 0 22 0;
#X connect 16 0 23 0;
#X connect 22 0 23 1;
#X connect 23 0 17 0;
#X connect 16 0 24 0;
#X connect 22 0 24 1;
#X connect 24 0 18 0;
