#N canvas 40 40 900 650 10;
#X obj 20 20 midirealtimein;
#X obj 20 50 sel 248 250 251 252;
#X obj 20 80 f 0;
#X obj 70 80 + 1;
#X obj 20 110 mod 24;
#X obj 20 140 sel 0;
#X obj 20 170 t b b;
#X obj 20 200 timer;
#X obj 20 230 moses 200;
#X obj 90 260 clip 200 2000;
#X obj 90 290 expr 60000/$f1;
#X obj 90 320 t f f;
#X obj 90 350 s pc-bpm-r;
#X obj 170 350 s pc-bpm;
#X obj 280 20 ctlin 1;
#X obj 280 50 / 127;
#X obj 280 80 t f f;
#X obj 280 110 s pc-mix-r;
#X obj 350 110 s pc-mix;
#X obj 420 20 ctlin 2;
#X obj 420 50 / 127;
#X obj 420 80 * 0.97;
#X obj 420 110 t f f;
#X obj 420 140 s pc-feedback-r;
#X obj 510 140 s pc-feedback;
#X obj 570 20 ctlin 3;
#X obj 570 50 / 127;
#X obj 570 80 * 960;
#X obj 570 110 + 40;
#X obj 570 140 t f f;
#X obj 570 170 s pc-grain-r;
#X obj 650 170 s pc-grain;
#X obj 720 20 ctlin 4;
#X obj 720 50 / 127;
#X obj 720 80 t f f;
#X obj 720 110 s pc-space-r;
#X obj 790 110 s pc-space;
#X obj 280 200 ctlin 5;
#X obj 280 230 / 127;
#X obj 280 260 * 70;
#X obj 280 290 + 50;
#X obj 280 320 t f f;
#X obj 280 350 s pc-tone-r;
#X obj 350 350 s pc-tone;
#X obj 420 200 ctlin 6;
#X obj 420 230 / 127;
#X obj 420 260 t f f;
#X obj 420 290 s pc-density-r;
#X obj 500 290 s pc-density;
#X obj 570 200 ctlin 7;
#X obj 570 230 / 127;
#X obj 570 260 * 24;
#X obj 570 290 - 12;
#X obj 570 320 t f f;
#X obj 570 350 s pc-pitch-r;
#X obj 650 350 s pc-pitch;
#X obj 720 200 ctlin 8;
#X obj 720 230 / 127;
#X obj 720 260 t f f;
#X obj 720 290 s pc-pitchmix-r;
#X obj 810 290 s pc-pitchmix;
#X obj 280 400 pgmin;
#X obj 280 430 moses 4;
#X obj 280 460 t f f;
#X obj 280 490 s pc-mode-r;
#X obj 350 490 s pc-mode;
#X obj 430 460 - 4;
#X obj 430 490 mod 4;
#X obj 430 520 t f f b;
#X obj 430 550 s pc-preset-slot-r;
#X obj 530 550 s pc-preset-slot;
#X obj 620 550 s pc-preset-recall;
#X obj 20 400 notein;
#X obj 20 430 stripnote;
#X obj 20 460 sel 36 37 38 39 40;
#X obj 20 500 f 0;
#X obj 130 500 f 0;
#X obj 240 500 f 0;
#X obj 350 500 s pc-loop-overdub;
#X obj 460 500 s pc-loop-undo;
#X obj 20 530 == 0;
#X obj 20 560 t f f;
#X obj 20 590 s pc-loop-record-r;
#X obj 120 590 s pc-loop-record;
#X obj 180 530 == 0;
#X obj 180 560 t f f;
#X obj 180 590 s pc-loop-play-r;
#X obj 280 590 s pc-loop-play;
#X obj 340 530 == 0;
#X obj 340 560 t f f;
#X obj 340 590 s pc-freeze-r;
#X obj 440 590 s pc-freeze;
#X obj 550 500 r pc-loop-record;
#X obj 550 530 r pc-loop-play;
#X obj 550 560 r pc-freeze;
#X obj 120 80 s pc-transport-start;
#X obj 180 80 s pc-transport-continue;
#X obj 260 80 s pc-transport-stop;
#X connect 0 0 1 0;
#X connect 1 0 2 0;
#X connect 1 1 95 0;
#X connect 1 2 96 0;
#X connect 1 3 97 0;
#X connect 2 0 3 0;
#X connect 3 0 2 1;
#X connect 3 0 4 0;
#X connect 4 0 5 0;
#X connect 5 0 6 0;
#X connect 6 1 7 0;
#X connect 6 0 7 1;
#X connect 7 0 8 0;
#X connect 8 1 9 0;
#X connect 9 0 10 0;
#X connect 10 0 11 0;
#X connect 11 0 12 0;
#X connect 11 1 13 0;
#X connect 14 0 15 0;
#X connect 15 0 16 0;
#X connect 16 0 17 0;
#X connect 16 1 18 0;
#X connect 19 0 20 0;
#X connect 20 0 21 0;
#X connect 21 0 22 0;
#X connect 22 0 23 0;
#X connect 22 1 24 0;
#X connect 25 0 26 0;
#X connect 26 0 27 0;
#X connect 27 0 28 0;
#X connect 28 0 29 0;
#X connect 29 0 30 0;
#X connect 29 1 31 0;
#X connect 32 0 33 0;
#X connect 33 0 34 0;
#X connect 34 0 35 0;
#X connect 34 1 36 0;
#X connect 37 0 38 0;
#X connect 38 0 39 0;
#X connect 39 0 40 0;
#X connect 40 0 41 0;
#X connect 41 0 42 0;
#X connect 41 1 43 0;
#X connect 44 0 45 0;
#X connect 45 0 46 0;
#X connect 46 0 47 0;
#X connect 46 1 48 0;
#X connect 49 0 50 0;
#X connect 50 0 51 0;
#X connect 51 0 52 0;
#X connect 52 0 53 0;
#X connect 53 0 54 0;
#X connect 53 1 55 0;
#X connect 56 0 57 0;
#X connect 57 0 58 0;
#X connect 58 0 59 0;
#X connect 58 1 60 0;
#X connect 61 0 62 0;
#X connect 62 0 63 0;
#X connect 62 1 66 0;
#X connect 63 0 64 0;
#X connect 63 1 65 0;
#X connect 66 0 67 0;
#X connect 67 0 68 0;
#X connect 68 0 69 0;
#X connect 68 1 70 0;
#X connect 68 2 71 0;
#X connect 72 0 73 0;
#X connect 72 1 73 1;
#X connect 73 0 74 0;
#X connect 74 0 75 0;
#X connect 74 1 76 0;
#X connect 74 2 77 0;
#X connect 74 3 78 0;
#X connect 74 4 79 0;
#X connect 75 0 80 0;
#X connect 80 0 81 0;
#X connect 81 0 82 0;
#X connect 81 1 83 0;
#X connect 76 0 84 0;
#X connect 84 0 85 0;
#X connect 85 0 86 0;
#X connect 85 1 87 0;
#X connect 77 0 88 0;
#X connect 88 0 89 0;
#X connect 89 0 90 0;
#X connect 89 1 91 0;
#X connect 92 0 75 1;
#X connect 93 0 76 1;
#X connect 94 0 77 1;
