#N canvas 80 80 620 420 10;
#X obj 20 20 r~ pc-dry;
#X obj 20 50 env~ 1024;
#X obj 20 80 - 100;
#X obj 20 110 s pc-inmeter-r;
#X obj 170 20 r~ pc-out-l;
#X obj 260 20 r~ pc-out-r;
#X obj 170 50 +~;
#X obj 170 80 *~ 0.5;
#X obj 170 110 env~ 1024;
#X obj 170 140 - 100;
#X obj 170 170 t f f;
#X obj 170 200 s pc-outmeter-r;
#X obj 260 200 > -1;
#X obj 260 230 s pc-clip-r;
#X connect 0 0 1 0;
#X connect 1 0 2 0;
#X connect 2 0 3 0;
#X connect 4 0 6 0;
#X connect 5 0 6 1;
#X connect 6 0 7 0;
#X connect 7 0 8 0;
#X connect 8 0 9 0;
#X connect 9 0 10 0;
#X connect 10 0 11 0;
#X connect 10 1 12 0;
#X connect 12 0 13 0;
