#N canvas 40 40 820 700 10;
#X obj 20 20 r~ pc-dry;
#X obj 300 20 r pc-bpm;
#X obj 300 50 max 30;
#X obj 300 80 expr 60000/$f1;
#X obj 300 110 sig~;
#X obj 300 150 *~ 0.25;
#X obj 380 150 *~ 0.5;
#X obj 460 150 *~ 0.75;
#X obj 540 150 *~ 1;
#X obj 300 190 vd~ pc-md;
#X obj 380 190 vd~ pc-md;
#X obj 460 190 vd~ pc-md;
#X obj 540 190 vd~ pc-md;
#X obj 380 230 *~ 0.6;
#X obj 540 230 *~ 0.4;
#X obj 380 270 +~;
#X obj 300 230 *~ 0.6;
#X obj 460 270 *~ 0.4;
#X obj 300 310 +~;
#X obj 380 310 hip~ 30;
#X obj 300 350 hip~ 30;
#X obj 380 390 s~ pc-fx-l;
#X obj 300 390 s~ pc-fx-r;
#X obj 300 430 +~;
#X obj 300 470 *~ 0.5;
#X obj 100 430 r pc-feedback;
#X obj 100 460 * 0.85;
#X obj 100 490 pack f 50;
#X obj 100 520 line~;
#X obj 100 560 *~;
#X obj 20 560 +~;
#X obj 20 600 clip~ -0.95 0.95;
#X obj 20 640 delwrite~ pc-md 2000;
#X obj 620 600 switch~;
#X obj 620 560 pt-modeswitch 4;
#X obj 650 300 pack f 40;
#X obj 650 330 line~;
#X obj 650 360 *~;
#X obj 740 360 *~;
#X connect 1 0 2 0;
#X connect 2 0 3 0;
#X connect 3 0 4 0;
#X connect 4 0 5 0;
#X connect 4 0 6 0;
#X connect 4 0 7 0;
#X connect 4 0 8 0;
#X connect 5 0 9 0;
#X connect 6 0 10 0;
#X connect 7 0 11 0;
#X connect 8 0 12 0;
#X connect 10 0 13 0;
#X connect 12 0 14 0;
#X connect 13 0 15 0;
#X connect 14 0 15 1;
#X connect 9 0 16 0;
#X connect 11 0 17 0;
#X connect 16 0 18 0;
#X connect 17 0 18 1;
#X connect 15 0 19 0;
#X connect 18 0 20 0;
#X connect 15 0 23 0;
#X connect 18 0 23 1;
#X connect 23 0 24 0;
#X connect 25 0 26 0;
#X connect 26 0 27 0;
#X connect 27 0 28 0;
#X connect 24 0 29 0;
#X connect 28 0 29 1;
#X connect 0 0 30 0;
#X connect 29 0 30 1;
#X connect 30 0 31 0;
#X connect 31 0 32 0;
#X connect 34 0 33 0;
#X connect 34 1 35 0;
#X connect 35 0 36 0;
#X connect 19 0 37 0;
#X connect 36 0 37 1;
#X connect 37 0 21 0;
#X connect 20 0 38 0;
#X connect 36 0 38 1;
#X connect 38 0 22 0;
