#N canvas 30 30 980 700 10;
#X obj 260 180 r pc-tone;
#X obj 260 210 mtof;
#X obj 20 410 bob~;
#X obj 120 410 bob~;
#X obj 20 445 rev3~ 88 88 3200 45;
#X obj 300 260 r pc-space;
#X obj 300 290 pack f 60;
#X obj 300 320 line~;
#X obj 390 290 sig~ 1;
#X obj 390 320 -~;
#X obj 20 490 *~;
#X obj 120 490 *~;
#X obj 220 490 *~;
#X obj 320 490 *~;
#X obj 20 530 +~;
#X obj 120 530 +~;
#X obj 500 20 r pc-feedback;
#X obj 580 20 r pc-freeze;
#X obj 500 50 pack f f;
#X obj 500 80 expr if($f2>0\,0.995\,$f1);
#X obj 500 110 pack f 60;
#X obj 500 140 line~;
#X obj 70 560 +~;
#X obj 70 590 *~ 0.5;
#X obj 70 620 *~;
#X obj 70 650 s~ pc-feedback-audio;
#X obj 520 220 r pc-mix;
#X obj 520 250 pack f 50;
#X obj 520 280 line~;
#X obj 620 220 r pc-bypass;
#X obj 620 250 expr if($f1>0\,0\,1);
#X obj 620 280 pack f 30;
#X obj 620 310 line~;
#X obj 520 310 *~;
#X obj 620 340 sig~ 1;
#X obj 620 370 -~;
#X obj 20 560 r~ pc-dry;
#X obj 20 590 *~;
#X obj 120 590 *~;
#X obj 220 560 *~;
#X obj 320 560 *~;
#X obj 20 620 +~;
#X obj 120 620 +~;
#X obj 20 650 *~ 0.25;
#X obj 120 650 *~ 0.25;
#X obj 20 680 dac~ 1 2;
#X obj 180 380 r~ pc-pitch-l;
#X obj 280 380 r~ pc-pitch-r;
#X obj 20 395 +~;
#X obj 120 395 +~;
#X obj 420 530 +~;
#X obj 420 560 *~ 0.5;
#X obj 420 590 s~ pc-fxmono;
#X obj 220 620 r~ pc-loop-l;
#X obj 320 620 r~ pc-loop-r;
#X obj 20 635 +~;
#X obj 120 635 +~;
#X obj 760 620 s~ pc-out-l;
#X obj 850 620 s~ pc-out-r;
#X obj 20 665 clip~ -0.98 0.98;
#X obj 120 665 clip~ -0.98 0.98;
#X msg 700 410 cutoff \$1;
#X obj 700 360 loadbang;
#X msg 820 410 2.5;
#X obj 300 380 catch~ pc-fx-l;
#X obj 400 380 catch~ pc-fx-r;
#X obj 600 440 r pc-reverb-style;
#X obj 600 470 sel 0 1 2 3;
#X msg 600 500 70 3000 60;
#X msg 680 500 90 3500 30;
#X msg 760 500 85 5000 15;
#X msg 840 500 95 2500 10;
#X obj 600 540 unpack f f f;
#X connect 46 0 48 1;
#X connect 47 0 49 1;
#X connect 48 0 2 0;
#X connect 49 0 3 0;
#X connect 0 0 1 0;
#X connect 1 0 2 1;
#X connect 1 0 3 1;
#X connect 2 0 4 0;
#X connect 2 0 10 0;
#X connect 3 0 4 1;
#X connect 3 0 11 0;
#X connect 4 0 12 0;
#X connect 4 1 13 0;
#X connect 5 0 6 0;
#X connect 6 0 7 0;
#X connect 7 0 12 1;
#X connect 7 0 13 1;
#X connect 7 0 9 1;
#X connect 8 0 9 0;
#X connect 9 0 10 1;
#X connect 9 0 11 1;
#X connect 10 0 14 0;
#X connect 12 0 14 1;
#X connect 11 0 15 0;
#X connect 13 0 15 1;
#X connect 14 0 22 0;
#X connect 15 0 22 1;
#X connect 14 0 50 0;
#X connect 15 0 50 1;
#X connect 50 0 51 0;
#X connect 51 0 52 0;
#X connect 16 0 18 0;
#X connect 17 0 18 1;
#X connect 18 0 19 0;
#X connect 19 0 20 0;
#X connect 20 0 21 0;
#X connect 22 0 23 0;
#X connect 23 0 24 0;
#X connect 21 0 24 1;
#X connect 24 0 25 0;
#X connect 26 0 27 0;
#X connect 27 0 28 0;
#X connect 28 0 33 0;
#X connect 29 0 30 0;
#X connect 30 0 31 0;
#X connect 31 0 32 0;
#X connect 32 0 33 1;
#X connect 33 0 35 1;
#X connect 33 0 39 1;
#X connect 33 0 40 1;
#X connect 34 0 35 0;
#X connect 35 0 37 1;
#X connect 35 0 38 1;
#X connect 36 0 37 0;
#X connect 36 0 38 0;
#X connect 14 0 39 0;
#X connect 15 0 40 0;
#X connect 37 0 41 0;
#X connect 39 0 41 1;
#X connect 38 0 42 0;
#X connect 40 0 42 1;
#X connect 41 0 55 0;
#X connect 42 0 56 0;
#X connect 53 0 55 1;
#X connect 54 0 56 1;
#X connect 55 0 43 0;
#X connect 56 0 44 0;
#X connect 43 0 59 0;
#X connect 44 0 60 0;
#X connect 59 0 57 0;
#X connect 60 0 58 0;
#X connect 59 0 45 0;
#X connect 60 0 45 1;
#X connect 62 0 63 0;
#X connect 63 0 2 2;
#X connect 63 0 3 2;
#X connect 64 0 48 0;
#X connect 65 0 49 0;
#X connect 66 0 67 0;
#X connect 67 0 68 0;
#X connect 67 1 69 0;
#X connect 67 2 70 0;
#X connect 67 3 71 0;
#X connect 68 0 72 0;
#X connect 69 0 72 0;
#X connect 70 0 72 0;
#X connect 71 0 72 0;
#X connect 72 0 4 3;
#X connect 72 1 4 4;
#X connect 72 2 4 5;
