#N canvas 30 30 980 700 10;
#X obj 20 20 r~ pc-cloud-l;
#X obj 120 20 r~ pc-cloud-r;
#X obj 20 60 r~ pc-glitch-l;
#X obj 120 60 r~ pc-glitch-r;
#X obj 20 100 r~ pc-arp-l;
#X obj 120 100 r~ pc-arp-r;
#X obj 20 140 r~ pc-reverse-l;
#X obj 120 140 r~ pc-reverse-r;
#X obj 300 20 r pc-mode;
#X obj 300 50 == 0;
#X obj 350 50 == 1;
#X obj 400 50 == 2;
#X obj 450 50 == 3;
#X obj 300 80 pack f 40;
#X obj 350 80 pack f 40;
#X obj 400 80 pack f 40;
#X obj 450 80 pack f 40;
#X obj 300 110 line~;
#X obj 350 110 line~;
#X obj 400 110 line~;
#X obj 450 110 line~;
#X obj 20 190 *~;
#X obj 120 190 *~;
#X obj 20 220 *~;
#X obj 120 220 *~;
#X obj 20 250 *~;
#X obj 120 250 *~;
#X obj 20 280 *~;
#X obj 120 280 *~;
#X obj 20 320 +~;
#X obj 120 320 +~;
#X obj 20 350 +~;
#X obj 120 350 +~;
#X obj 20 380 +~;
#X obj 120 380 +~;
#X obj 260 180 r pc-tone;
#X obj 260 210 mtof;
#X obj 20 410 bob~;
#X obj 120 410 bob~;
#X obj 20 445 rev3~ 88 88 3200 45;
#X obj 300 260 r pc-space;
#X obj 300 290 pack f 60;
#X obj 300 320 line~;
#X obj 390 290 sig~ 1;
#X obj 390 320 -~;
#X obj 20 490 *~;
#X obj 120 490 *~;
#X obj 220 490 *~;
#X obj 320 490 *~;
#X obj 20 530 +~;
#X obj 120 530 +~;
#X obj 500 20 r pc-feedback;
#X obj 580 20 r pc-freeze;
#X obj 500 50 pack f f;
#X obj 500 80 expr if($f2>0\,0.995\,$f1);
#X obj 500 110 pack f 60;
#X obj 500 140 line~;
#X obj 70 560 +~;
#X obj 70 590 *~ 0.5;
#X obj 70 620 *~;
#X obj 70 650 s~ pc-feedback-audio;
#X obj 520 220 r pc-mix;
#X obj 520 250 pack f 50;
#X obj 520 280 line~;
#X obj 620 220 r pc-bypass;
#X obj 620 250 expr if($f1>0\,0\,1);
#X obj 620 280 pack f 30;
#X obj 620 310 line~;
#X obj 520 310 *~;
#X obj 620 340 sig~ 1;
#X obj 620 370 -~;
#X obj 20 560 r~ pc-dry;
#X obj 20 590 *~;
#X obj 120 590 *~;
#X obj 220 560 *~;
#X obj 320 560 *~;
#X obj 20 620 +~;
#X obj 120 620 +~;
#X obj 20 650 *~ 0.25;
#X obj 120 650 *~ 0.25;
#X obj 20 680 dac~ 1 2;
#X obj 180 380 r~ pc-pitch-l;
#X obj 280 380 r~ pc-pitch-r;
#X obj 20 395 +~;
#X obj 120 395 +~;
#X obj 420 530 +~;
#X obj 420 560 *~ 0.5;
#X obj 420 590 s~ pc-fxmono;
#X obj 220 620 r~ pc-loop-l;
#X obj 320 620 r~ pc-loop-r;
#X obj 20 635 +~;
#X obj 120 635 +~;
#X obj 760 620 s~ pc-out-l;
#X obj 850 620 s~ pc-out-r;
#X obj 20 665 clip~ -0.98 0.98;
#X obj 120 665 clip~ -0.98 0.98;
#X msg 700 410 cutoff \$1;
#X obj 700 360 loadbang;
#X msg 820 410 resonance 0.6;
#X obj 700 470 r~ pc-multidelay-l;
#X obj 800 470 r~ pc-multidelay-r;
#X obj 700 500 r~ pc-microloop-l;
#X obj 800 500 r~ pc-microloop-r;
#X obj 500 470 == 4;
#X obj 560 470 == 5;
#X obj 500 500 pack f 40;
#X obj 560 500 pack f 40;
#X obj 500 530 line~;
#X obj 560 530 line~;
#X obj 700 540 *~;
#X obj 760 540 *~;
#X obj 820 540 *~;
#X obj 880 540 *~;
#X obj 700 580 +~;
#X obj 820 580 +~;
#X obj 700 620 +~;
#X obj 820 620 +~;
#X connect 0 0 21 0;
#X connect 1 0 22 0;
#X connect 2 0 23 0;
#X connect 3 0 24 0;
#X connect 4 0 25 0;
#X connect 5 0 26 0;
#X connect 6 0 27 0;
#X connect 7 0 28 0;
#X connect 8 0 9 0;
#X connect 8 0 10 0;
#X connect 8 0 11 0;
#X connect 8 0 12 0;
#X connect 9 0 13 0;
#X connect 10 0 14 0;
#X connect 11 0 15 0;
#X connect 12 0 16 0;
#X connect 13 0 17 0;
#X connect 14 0 18 0;
#X connect 15 0 19 0;
#X connect 16 0 20 0;
#X connect 17 0 21 1;
#X connect 17 0 22 1;
#X connect 18 0 23 1;
#X connect 18 0 24 1;
#X connect 19 0 25 1;
#X connect 19 0 26 1;
#X connect 20 0 27 1;
#X connect 20 0 28 1;
#X connect 21 0 29 0;
#X connect 23 0 29 1;
#X connect 22 0 30 0;
#X connect 24 0 30 1;
#X connect 25 0 31 0;
#X connect 27 0 31 1;
#X connect 26 0 32 0;
#X connect 28 0 32 1;
#X connect 29 0 33 0;
#X connect 31 0 33 1;
#X connect 30 0 34 0;
#X connect 32 0 34 1;
#X connect 33 0 115 0;
#X connect 34 0 116 0;
#X connect 81 0 83 1;
#X connect 82 0 84 1;
#X connect 83 0 37 0;
#X connect 84 0 38 0;
#X connect 35 0 36 0;
#X connect 36 0 96 0;
#X connect 37 0 39 0;
#X connect 37 0 45 0;
#X connect 38 0 39 1;
#X connect 38 0 46 0;
#X connect 39 0 47 0;
#X connect 39 1 48 0;
#X connect 40 0 41 0;
#X connect 41 0 42 0;
#X connect 42 0 47 1;
#X connect 42 0 48 1;
#X connect 42 0 44 1;
#X connect 43 0 44 0;
#X connect 44 0 45 1;
#X connect 44 0 46 1;
#X connect 45 0 49 0;
#X connect 47 0 49 1;
#X connect 46 0 50 0;
#X connect 48 0 50 1;
#X connect 49 0 57 0;
#X connect 50 0 57 1;
#X connect 49 0 85 0;
#X connect 50 0 85 1;
#X connect 85 0 86 0;
#X connect 86 0 87 0;
#X connect 51 0 53 0;
#X connect 52 0 53 1;
#X connect 53 0 54 0;
#X connect 54 0 55 0;
#X connect 55 0 56 0;
#X connect 57 0 58 0;
#X connect 58 0 59 0;
#X connect 56 0 59 1;
#X connect 59 0 60 0;
#X connect 61 0 62 0;
#X connect 62 0 63 0;
#X connect 63 0 68 0;
#X connect 64 0 65 0;
#X connect 65 0 66 0;
#X connect 66 0 67 0;
#X connect 67 0 68 1;
#X connect 68 0 70 1;
#X connect 68 0 74 1;
#X connect 68 0 75 1;
#X connect 69 0 70 0;
#X connect 70 0 72 1;
#X connect 70 0 73 1;
#X connect 71 0 72 0;
#X connect 71 0 73 0;
#X connect 49 0 74 0;
#X connect 50 0 75 0;
#X connect 72 0 76 0;
#X connect 74 0 76 1;
#X connect 73 0 77 0;
#X connect 75 0 77 1;
#X connect 76 0 90 0;
#X connect 77 0 91 0;
#X connect 88 0 90 1;
#X connect 89 0 91 1;
#X connect 90 0 78 0;
#X connect 91 0 79 0;
#X connect 78 0 94 0;
#X connect 79 0 95 0;
#X connect 94 0 92 0;
#X connect 95 0 93 0;
#X connect 94 0 80 0;
#X connect 95 0 80 1;
#X connect 96 0 37 0;
#X connect 96 0 38 0;
#X connect 97 0 98 0;
#X connect 98 0 37 0;
#X connect 98 0 38 0;
#X connect 8 0 103 0;
#X connect 8 0 104 0;
#X connect 103 0 105 0;
#X connect 104 0 106 0;
#X connect 105 0 107 0;
#X connect 106 0 108 0;
#X connect 99 0 109 0;
#X connect 107 0 109 1;
#X connect 100 0 110 0;
#X connect 107 0 110 1;
#X connect 101 0 111 0;
#X connect 108 0 111 1;
#X connect 102 0 112 0;
#X connect 108 0 112 1;
#X connect 109 0 113 0;
#X connect 111 0 113 1;
#X connect 110 0 114 0;
#X connect 112 0 114 1;
#X connect 113 0 115 1;
#X connect 114 0 116 1;
#X connect 115 0 83 0;
#X connect 116 0 84 0;
