#N canvas 80 80 520 380 10;
#X obj 20 20 r~ pc-dry;
#X obj 20 50 env~ 256 128;
#X obj 20 80 > 62;
#X obj 20 110 change;
#X obj 20 140 sel 1;
#X obj 20 170 spigot 1;
#X obj 20 200 t b b b;
#X obj 20 230 s pc-onset;
#X obj 100 230 s pc-onset-r;
#X msg 180 230 0;
#X obj 240 230 delay 120;
#X msg 240 260 1;
#X obj 300 20 r pc-onset-sensitivity;
#X obj 300 50 expr 80-($f1*35);
#X connect 0 0 1 0;
#X connect 1 0 2 0;
#X connect 2 0 3 0;
#X connect 3 0 4 0;
#X connect 4 0 5 0;
#X connect 5 0 6 0;
#X connect 6 0 7 0;
#X connect 6 1 8 0;
#X connect 6 2 9 0;
#X connect 9 0 5 1;
#X connect 9 0 10 0;
#X connect 10 0 11 0;
#X connect 11 0 5 1;
#X connect 12 0 13 0;
#X connect 13 0 2 1;
