#N canvas 30 30 1100 700 10;
#X obj 20 20 text define pc-presets;
#X obj 20 50 loadbang;
#X msg 20 80 read /home/pi/pocketcosm/presets.txt;
#X obj 20 110 s pc-preset-recall;
#X obj 180 20 r pc-preset-slot;
#X obj 180 50 f 0;
#X obj 180 80 r pc-preset-save;
#X obj 180 110 t b;
#X obj 180 140 f 0;
#X obj 250 140 r pc-mode;
#X obj 310 140 r pc-grain;
#X obj 370 140 r pc-delay;
#X obj 430 140 r pc-bpm;
#X obj 490 140 r pc-pitch;
#X obj 550 140 r pc-pitchmix;
#X obj 610 140 r pc-texture;
#X obj 670 140 r pc-density;
#X obj 730 140 r pc-onset-sensitivity;
#X obj 790 140 r pc-tone;
#X obj 850 140 r pc-feedback;
#X obj 910 140 r pc-space;
#X obj 970 140 r pc-mix;
#X obj 180 180 pack f f f f f f f f f f f f f;
#X obj 180 210 t b l;
#X obj 260 240 text set pc-presets;
#X msg 180 240 write /home/pi/pocketcosm/presets.txt;
#X obj 20 160 r pc-preset-recall;
#X obj 20 190 f 0;
#X obj 20 220 text get pc-presets;
#X obj 20 250 unpack f f f f f f f f f f f f f;
#X obj 20 290 s pc-mode-r;
#X obj 20 320 s pc-mode;
#X obj 90 290 s pc-grain-r;
#X obj 90 320 s pc-grain;
#X obj 160 290 s pc-delay-r;
#X obj 160 320 s pc-delay;
#X obj 230 290 s pc-bpm-r;
#X obj 230 320 s pc-bpm;
#X obj 300 290 s pc-pitch-r;
#X obj 300 320 s pc-pitch;
#X obj 370 290 s pc-pitchmix-r;
#X obj 370 320 s pc-pitchmix;
#X obj 460 290 s pc-texture-r;
#X obj 460 320 s pc-texture;
#X obj 540 290 s pc-density-r;
#X obj 540 320 s pc-density;
#X obj 620 290 s pc-onset-sensitivity-r;
#X obj 620 320 s pc-onset-sensitivity;
#X obj 750 290 s pc-tone-r;
#X obj 750 320 s pc-tone;
#X obj 820 290 s pc-feedback-r;
#X obj 820 320 s pc-feedback;
#X obj 900 290 s pc-space-r;
#X obj 900 320 s pc-space;
#X obj 970 290 s pc-mix-r;
#X obj 970 320 s pc-mix;
#X obj 20 370 t f f;
#X obj 90 370 t f f;
#X obj 160 370 t f f;
#X obj 230 370 t f f;
#X obj 300 370 t f f;
#X obj 370 370 t f f;
#X obj 460 370 t f f;
#X obj 540 370 t f f;
#X obj 620 370 t f f;
#X obj 750 370 t f f;
#X obj 820 370 t f f;
#X obj 900 370 t f f;
#X obj 970 370 t f f;
#X connect 1 0 2 0;
#X connect 1 0 3 0;
#X connect 2 0 0 0;
#X connect 4 0 5 1;
#X connect 4 0 24 1;
#X connect 4 0 27 1;
#X connect 6 0 7 0;
#X connect 7 0 8 0;
#X connect 8 0 22 0;
#X connect 9 0 8 1;
#X connect 10 0 22 1;
#X connect 11 0 22 2;
#X connect 12 0 22 3;
#X connect 13 0 22 4;
#X connect 14 0 22 5;
#X connect 15 0 22 6;
#X connect 16 0 22 7;
#X connect 17 0 22 8;
#X connect 18 0 22 9;
#X connect 19 0 22 10;
#X connect 20 0 22 11;
#X connect 21 0 22 12;
#X connect 22 0 23 0;
#X connect 23 0 25 0;
#X connect 23 1 24 0;
#X connect 25 0 0 0;
#X connect 26 0 27 0;
#X connect 27 0 28 0;
#X connect 28 0 29 0;
#X connect 29 0 56 0;
#X connect 29 1 57 0;
#X connect 29 2 58 0;
#X connect 29 3 59 0;
#X connect 29 4 60 0;
#X connect 29 5 61 0;
#X connect 29 6 62 0;
#X connect 29 7 63 0;
#X connect 29 8 64 0;
#X connect 29 9 65 0;
#X connect 29 10 66 0;
#X connect 29 11 67 0;
#X connect 29 12 68 0;
#X connect 56 0 30 0;
#X connect 56 1 31 0;
#X connect 57 0 32 0;
#X connect 57 1 33 0;
#X connect 58 0 34 0;
#X connect 58 1 35 0;
#X connect 59 0 36 0;
#X connect 59 1 37 0;
#X connect 60 0 38 0;
#X connect 60 1 39 0;
#X connect 61 0 40 0;
#X connect 61 1 41 0;
#X connect 62 0 42 0;
#X connect 62 1 43 0;
#X connect 63 0 44 0;
#X connect 63 1 45 0;
#X connect 64 0 46 0;
#X connect 64 1 47 0;
#X connect 65 0 48 0;
#X connect 65 1 49 0;
#X connect 66 0 50 0;
#X connect 66 1 51 0;
#X connect 67 0 52 0;
#X connect 67 1 53 0;
#X connect 68 0 54 0;
#X connect 68 1 55 0;
