#N canvas 60 60 700 560 10;
#X obj 20 20 r pc-grain;
#X obj 20 50 max 120;
#X obj 20 80 t f f;
#X obj 20 110 expr 1000/$f1;
#X obj 20 140 sig~;
#X obj 20 170 phasor~;
#X obj 130 170 +~ 0.5;
#X obj 130 200 wrap~;
#X obj 20 205 -~ 0.5;
#X obj 20 235 cos~;
#X obj 20 265 *~ 0.5;
#X obj 20 295 +~ 0.5;
#X obj 130 230 -~ 0.5;
#X obj 130 260 cos~;
#X obj 130 290 *~ 0.5;
#X obj 130 320 +~ 0.5;
#X obj 20 350 *~;
#X obj 130 350 *~;
#X obj 20 380 *~ 2;
#X obj 130 380 *~ 2;
#X obj 300 20 r pc-delay;
#X obj 300 50 pack f 60;
#X obj 300 80 line~;
#X obj 20 410 +~;
#X obj 130 410 +~;
#X obj 20 440 vd~ pc-memory;
#X obj 130 440 vd~ pc-memory;
#X obj 20 470 *~;
#X obj 130 470 *~;
#X obj 20 500 s~ pc-reverse-l;
#X obj 130 500 s~ pc-reverse-r;
#X connect 0 0 1 0;
#X connect 1 0 2 0;
#X connect 2 0 3 0;
#X connect 2 1 16 1;
#X connect 2 1 17 1;
#X connect 3 0 4 0;
#X connect 4 0 5 0;
#X connect 5 0 6 0;
#X connect 5 0 8 0;
#X connect 5 0 16 0;
#X connect 6 0 7 0;
#X connect 7 0 12 0;
#X connect 7 0 17 0;
#X connect 8 0 9 0;
#X connect 9 0 10 0;
#X connect 10 0 11 0;
#X connect 11 0 27 1;
#X connect 12 0 13 0;
#X connect 13 0 14 0;
#X connect 14 0 15 0;
#X connect 15 0 28 1;
#X connect 16 0 18 0;
#X connect 17 0 19 0;
#X connect 18 0 23 0;
#X connect 19 0 24 0;
#X connect 20 0 21 0;
#X connect 21 0 22 0;
#X connect 22 0 23 1;
#X connect 22 0 24 1;
#X connect 23 0 25 0;
#X connect 24 0 26 0;
#X connect 25 0 27 0;
#X connect 26 0 28 0;
#X connect 27 0 29 0;
#X connect 28 0 30 0;
