#N canvas 60 60 720 500 10;
#X obj 20 20 adc~ 1 2;
#X obj 20 50 +~;
#X obj 20 80 *~ 0.5;
#X obj 150 20 noise~;
#X obj 150 50 bp~ 330 6;
#X obj 250 20 osc~ 110;
#X obj 250 50 *~ 0.18;
#X obj 150 80 +~;
#X obj 350 20 r pc-demo;
#X obj 350 50 pack f 30;
#X obj 350 80 line~;
#X obj 150 110 *~;
#X obj 20 120 +~;
#X obj 20 150 s~ pc-dry;
#X obj 430 20 r pc-freeze;
#X obj 430 50 expr 1-$f1;
#X obj 430 80 pack f 30;
#X obj 430 110 line~;
#X obj 20 185 *~;
#X obj 20 220 +~;
#X obj 125 220 r~ pc-feedback-audio;
#X obj 20 250 hip~ 25;
#X obj 20 280 lop~ 9000;
#X obj 20 310 clip~ -0.95 0.95;
#X obj 20 340 delwrite~ pc-memory 8000;
#X connect 0 0 1 0;
#X connect 0 1 1 1;
#X connect 1 0 2 0;
#X connect 2 0 12 0;
#X connect 3 0 4 0;
#X connect 4 0 7 0;
#X connect 5 0 6 0;
#X connect 6 0 7 1;
#X connect 7 0 11 0;
#X connect 8 0 9 0;
#X connect 9 0 10 0;
#X connect 10 0 11 1;
#X connect 11 0 12 1;
#X connect 12 0 13 0;
#X connect 12 0 18 0;
#X connect 14 0 15 0;
#X connect 15 0 16 0;
#X connect 16 0 17 0;
#X connect 17 0 18 1;
#X connect 18 0 19 0;
#X connect 20 0 19 1;
#X connect 19 0 21 0;
#X connect 21 0 22 0;
#X connect 22 0 23 0;
#X connect 23 0 24 0;
