#N canvas 20 20 1240 820 10;
#X obj 20 20 netreceive -u 9001;
#X obj 20 50 route set action sync;
#X obj 20 85 route demo freeze bypass mode grain delay bpm pitch pitchmix texture density onset tone feedback space mix loop_record loop_play loop_reverse loop_route preset_slot loop_halfspeed subdivision;
#X obj 20 130 t f f;
#X obj 20 160 s pc-demo;
#X obj 85 160 s pc-demo-r;
#X obj 120 130 t f f;
#X obj 120 160 s pc-freeze;
#X obj 195 160 s pc-freeze-r;
#X obj 230 130 t f f;
#X obj 230 160 s pc-bypass;
#X obj 305 160 s pc-bypass-r;
#X obj 340 130 t f f;
#X obj 340 160 s pc-mode;
#X obj 405 160 s pc-mode-r;
#X obj 450 130 t f f;
#X obj 450 160 s pc-grain;
#X obj 515 160 s pc-grain-r;
#X obj 560 130 t f f;
#X obj 560 160 s pc-delay;
#X obj 625 160 s pc-delay-r;
#X obj 670 130 t f f;
#X obj 670 160 s pc-bpm;
#X obj 735 160 s pc-bpm-r;
#X obj 780 130 t f f;
#X obj 780 160 s pc-pitch;
#X obj 845 160 s pc-pitch-r;
#X obj 890 130 t f f;
#X obj 890 160 s pc-pitchmix;
#X obj 970 160 s pc-pitchmix-r;
#X obj 20 210 t f f;
#X obj 20 240 s pc-texture;
#X obj 95 240 s pc-texture-r;
#X obj 130 210 t f f;
#X obj 130 240 s pc-density;
#X obj 205 240 s pc-density-r;
#X obj 240 210 t f f;
#X obj 240 240 s pc-onset-sensitivity;
#X obj 355 240 s pc-onset-sensitivity-r;
#X obj 390 210 t f f;
#X obj 390 240 s pc-tone;
#X obj 455 240 s pc-tone-r;
#X obj 500 210 t f f;
#X obj 500 240 s pc-feedback;
#X obj 585 240 s pc-feedback-r;
#X obj 630 210 t f f;
#X obj 630 240 s pc-space;
#X obj 695 240 s pc-space-r;
#X obj 740 210 t f f;
#X obj 740 240 s pc-mix;
#X obj 795 240 s pc-mix-r;
#X obj 840 210 t f f;
#X obj 840 240 s pc-loop-record;
#X obj 945 240 s pc-loop-record-r;
#X obj 20 290 t f f;
#X obj 20 320 s pc-loop-play;
#X obj 95 320 s pc-loop-play-r;
#X obj 130 290 t f f;
#X obj 130 320 s pc-loop-reverse;
#X obj 235 320 s pc-loop-reverse-r;
#X obj 280 290 t f f;
#X obj 280 320 s pc-loop-route;
#X obj 375 320 s pc-loop-route-r;
#X obj 420 290 t f f;
#X obj 420 320 s pc-preset-slot;
#X obj 515 320 s pc-preset-slot-r;
#X obj 20 370 route overdub undo clear preset_recall preset_save fade;
#X obj 20 400 s pc-loop-overdub;
#X obj 145 400 s pc-loop-undo;
#X obj 250 400 s pc-loop-clear;
#X obj 355 400 s pc-preset-recall;
#X obj 485 400 s pc-preset-save;
#X obj 180 50 s pc-ui-sync;
#X obj 720 380 r pc-ui-out;
#X obj 720 410 netsend -u;
#X obj 880 350 loadbang;
#X msg 880 380 connect localhost 9002;
#X obj 720 460 pt-ui-send demo pc-demo;
#X obj 720 485 pt-ui-send freeze pc-freeze;
#X obj 720 510 pt-ui-send bypass pc-bypass;
#X obj 720 535 pt-ui-send mode pc-mode;
#X obj 720 560 pt-ui-send grain pc-grain;
#X obj 720 585 pt-ui-send delay pc-delay;
#X obj 720 610 pt-ui-send bpm pc-bpm;
#X obj 720 635 pt-ui-send pitch pc-pitch;
#X obj 720 660 pt-ui-send pitchmix pc-pitchmix;
#X obj 720 685 pt-ui-send texture pc-texture;
#X obj 720 710 pt-ui-send density pc-density;
#X obj 720 735 pt-ui-send onset pc-onset-sensitivity;
#X obj 930 460 pt-ui-send tone pc-tone;
#X obj 930 485 pt-ui-send feedback pc-feedback;
#X obj 930 510 pt-ui-send space pc-space;
#X obj 930 535 pt-ui-send mix pc-mix;
#X obj 930 560 pt-ui-send loop_record pc-loop-record;
#X obj 930 585 pt-ui-send loop_play pc-loop-play;
#X obj 930 610 pt-ui-send loop_reverse pc-loop-reverse;
#X obj 930 635 pt-ui-send loop_route pc-loop-route;
#X obj 930 660 pt-ui-send loop_ms pc-loop-ms;
#X obj 930 685 pt-ui-send overdub_active pc-loop-overdub-active;
#X obj 930 710 pt-ui-send preset_slot pc-preset-slot;
#X obj 930 735 pt-ui-meter inmeter pc-inmeter-r;
#X obj 1100 460 pt-ui-meter outmeter pc-outmeter-r;
#X obj 1100 485 pt-ui-change clip pc-clip-r;
#X obj 1100 510 pt-ui-bang hit pc-onset;
#X obj 300 50 loadbang;
#X obj 300 80 delay 750;
#X obj 300 110 s pc-ui-sync;
#X obj 720 385 list prepend send;
#X obj 720 395 list trim;
#X obj 1100 535 pt-ui-send loop_phase pc-loop-phase;
#X obj 1100 560 pt-ui-send undo_valid pc-loop-undo-valid;
#X obj 200 430 t f f;
#X obj 200 460 s pc-loop-halfspeed;
#X obj 320 460 s pc-loop-halfspeed-r;
#X obj 480 430 s pc-loop-fade;
#X obj 600 430 s pc-subdivision;
#X connect 0 0 1 0;
#X connect 1 0 2 0;
#X connect 1 1 66 0;
#X connect 1 2 72 0;
#X connect 2 0 3 0;
#X connect 2 1 6 0;
#X connect 2 2 9 0;
#X connect 2 3 12 0;
#X connect 2 4 15 0;
#X connect 2 5 18 0;
#X connect 2 6 21 0;
#X connect 2 7 24 0;
#X connect 2 8 27 0;
#X connect 2 9 30 0;
#X connect 2 10 33 0;
#X connect 2 11 36 0;
#X connect 2 12 39 0;
#X connect 2 13 42 0;
#X connect 2 14 45 0;
#X connect 2 15 48 0;
#X connect 2 16 51 0;
#X connect 2 17 54 0;
#X connect 2 18 57 0;
#X connect 2 19 60 0;
#X connect 2 20 63 0;
#X connect 3 0 4 0;
#X connect 3 1 5 0;
#X connect 6 0 7 0;
#X connect 6 1 8 0;
#X connect 9 0 10 0;
#X connect 9 1 11 0;
#X connect 12 0 13 0;
#X connect 12 1 14 0;
#X connect 15 0 16 0;
#X connect 15 1 17 0;
#X connect 18 0 19 0;
#X connect 18 1 20 0;
#X connect 21 0 22 0;
#X connect 21 1 23 0;
#X connect 24 0 25 0;
#X connect 24 1 26 0;
#X connect 27 0 28 0;
#X connect 27 1 29 0;
#X connect 30 0 31 0;
#X connect 30 1 32 0;
#X connect 33 0 34 0;
#X connect 33 1 35 0;
#X connect 36 0 37 0;
#X connect 36 1 38 0;
#X connect 39 0 40 0;
#X connect 39 1 41 0;
#X connect 42 0 43 0;
#X connect 42 1 44 0;
#X connect 45 0 46 0;
#X connect 45 1 47 0;
#X connect 48 0 49 0;
#X connect 48 1 50 0;
#X connect 51 0 52 0;
#X connect 51 1 53 0;
#X connect 54 0 55 0;
#X connect 54 1 56 0;
#X connect 57 0 58 0;
#X connect 57 1 59 0;
#X connect 60 0 61 0;
#X connect 60 1 62 0;
#X connect 63 0 64 0;
#X connect 63 1 65 0;
#X connect 66 0 67 0;
#X connect 66 1 68 0;
#X connect 66 2 69 0;
#X connect 66 3 70 0;
#X connect 66 4 71 0;
#X connect 73 0 107 0;
#X connect 107 0 108 0;
#X connect 108 0 74 0;
#X connect 75 0 76 0;
#X connect 76 0 74 0;
#X connect 104 0 105 0;
#X connect 105 0 106 0;
#X connect 2 21 111 0;
#X connect 111 0 112 0;
#X connect 111 1 113 0;
#X connect 66 5 114 0;
#X connect 2 22 115 0;
