#N canvas 100 100 360 220 10;
#X obj 20 20 r \$2;
#X obj 20 50 t f f;
#X obj 95 50 f 0;
#X obj 20 90 list prepend \$1;
#X obj 20 120 list trim;
#X obj 20 150 s pc-ui-out;
#X obj 95 20 r pc-ui-sync;
#X connect 0 0 1 0;
#X connect 1 0 3 0;
#X connect 1 1 2 1;
#X connect 2 0 3 0;
#X connect 3 0 4 0;
#X connect 4 0 5 0;
#X connect 6 0 2 0;
