#N canvas 100 100 340 220 10;
#X obj 20 20 r \$2;
#X obj 20 50 f -100;
#X obj 120 20 loadbang;
#X msg 120 50 1;
#X obj 120 80 metro 50;
#X obj 20 90 list prepend \$1;
#X obj 20 120 list trim;
#X obj 20 150 s pc-ui-out;
#X connect 0 0 1 1;
#X connect 1 0 5 0;
#X connect 2 0 3 0;
#X connect 3 0 4 0;
#X connect 4 0 1 0;
#X connect 5 0 6 0;
#X connect 6 0 7 0;
